<?xml version="1.0" encoding="UTF-8"?>
<svg xmlns="http://www.w3.org/2000/svg" xmlns:xlink="http://www.w3.org/1999/xlink" version="1.1" width="350px" height="350px" viewBox="0 0 350 350"><defs><rect id="r0" width="9" height="9" fill="#000000"/></defs><rect x="0" y="0" width="350" height="350" fill="#fefefe"/><use x="44" y="44" xlink:href="#r0"/><use x="53" y="44" xlink:href="#r0"/><use x="62" y="44" xlink:href="#r0"/><use x="71" y="44" xlink:href="#r0"/><use x="80" y="44" xlink:href="#r0"/><use x="89" y="44" xlink:href="#r0"/><use x="98" y="44" xlink:href="#r0"/><use x="125" y="44" xlink:href="#r0"/><use x="170" y="44" xlink:href="#r0"/><use x="188" y="44" xlink:href="#r0"/><use x="215" y="44" xlink:href="#r0"/><use x="224" y="44" xlink:href="#r0"/><use x="242" y="44" xlink:href="#r0"/><use x="251" y="44" xlink:href="#r0"/><use x="260" y="44" xlink:href="#r0"/><use x="269" y="44" xlink:href="#r0"/><use x="278" y="44" xlink:href="#r0"/><use x="287" y="44" xlink:href="#r0"/><use x="296" y="44" xlink:href="#r0"/><use x="44" y="53" xlink:href="#r0"/><use x="98" y="53" xlink:href="#r0"/><use x="116" y="53" xlink:href="#r0"/><use x="125" y="53" xlink:href="#r0"/><use x="143" y="53" xlink:href="#r0"/><use x="152" y="53" xlink:href="#r0"/><use x="161" y="53" xlink:href="#r0"/><use x="179" y="53" xlink:href="#r0"/><use x="188" y="53" xlink:href="#r0"/><use x="206" y="53" xlink:href="#r0"/><use x="224" y="53" xlink:href="#r0"/><use x="242" y="53" xlink:href="#r0"/><use x="296" y="53" xlink:href="#r0"/><use x="44" y="62" xlink:href="#r0"/><use x="62" y="62" xlink:href="#r0"/><use x="71" y="62" xlink:href="#r0"/><use x="80" y="62" xlink:href="#r0"/><use x="98" y="62" xlink:href="#r0"/><use x="125" y="62" xlink:href="#r0"/><use x="134" y="62" xlink:href="#r0"/><use x="143" y="62" xlink:href="#r0"/><use x="188" y="62" xlink:href="#r0"/><use x="215" y="62" xlink:href="#r0"/><use x="224" y="62" xlink:href="#r0"/><use x="242" y="62" xlink:href="#r0"/><use x="260" y="62" xlink:href="#r0"/><use x="269" y="62" xlink:href="#r0"/><use x="278" y="62" xlink:href="#r0"/><use x="296" y="62" xlink:href="#r0"/><use x="44" y="71" xlink:href="#r0"/><use x="62" y="71" xlink:href="#r0"/><use x="71" y="71" xlink:href="#r0"/><use x="80" y="71" xlink:href="#r0"/><use x="98" y="71" xlink:href="#r0"/><use x="116" y="71" xlink:href="#r0"/><use x="125" y="71" xlink:href="#r0"/><use x="143" y="71" xlink:href="#r0"/><use x="161" y="71" xlink:href="#r0"/><use x="170" y="71" xlink:href="#r0"/><use x="197" y="71" xlink:href="#r0"/><use x="215" y="71" xlink:href="#r0"/><use x="242" y="71" xlink:href="#r0"/><use x="260" y="71" xlink:href="#r0"/><use x="269" y="71" xlink:href="#r0"/><use x="278" y="71" xlink:href="#r0"/><use x="296" y="71" xlink:href="#r0"/><use x="44" y="80" xlink:href="#r0"/><use x="62" y="80" xlink:href="#r0"/><use x="71" y="80" xlink:href="#r0"/><use x="80" y="80" xlink:href="#r0"/><use x="98" y="80" xlink:href="#r0"/><use x="134" y="80" xlink:href="#r0"/><use x="152" y="80" xlink:href="#r0"/><use x="188" y="80" xlink:href="#r0"/><use x="215" y="80" xlink:href="#r0"/><use x="242" y="80" xlink:href="#r0"/><use x="260" y="80" xlink:href="#r0"/><use x="269" y="80" xlink:href="#r0"/><use x="278" y="80" xlink:href="#r0"/><use x="296" y="80" xlink:href="#r0"/><use x="44" y="89" xlink:href="#r0"/><use x="98" y="89" xlink:href="#r0"/><use x="116" y="89" xlink:href="#r0"/><use x="134" y="89" xlink:href="#r0"/><use x="170" y="89" xlink:href="#r0"/><use x="179" y="89" xlink:href="#r0"/><use x="188" y="89" xlink:href="#r0"/><use x="197" y="89" xlink:href="#r0"/><use x="206" y="89" xlink:href="#r0"/><use x="242" y="89" xlink:href="#r0"/><use x="296" y="89" xlink:href="#r0"/><use x="44" y="98" xlink:href="#r0"/><use x="53" y="98" xlink:href="#r0"/><use x="62" y="98" xlink:href="#r0"/><use x="71" y="98" xlink:href="#r0"/><use x="80" y="98" xlink:href="#r0"/><use x="89" y="98" xlink:href="#r0"/><use x="98" y="98" xlink:href="#r0"/><use x="116" y="98" xlink:href="#r0"/><use x="134" y="98" xlink:href="#r0"/><use x="152" y="98" xlink:href="#r0"/><use x="170" y="98" xlink:href="#r0"/><use x="188" y="98" xlink:href="#r0"/><use x="206" y="98" xlink:href="#r0"/><use x="224" y="98" xlink:href="#r0"/><use x="242" y="98" xlink:href="#r0"/><use x="251" y="98" xlink:href="#r0"/><use x="260" y="98" xlink:href="#r0"/><use x="269" y="98" xlink:href="#r0"/><use x="278" y="98" xlink:href="#r0"/><use x="287" y="98" xlink:href="#r0"/><use x="296" y="98" xlink:href="#r0"/><use x="152" y="107" xlink:href="#r0"/><use x="188" y="107" xlink:href="#r0"/><use x="206" y="107" xlink:href="#r0"/><use x="44" y="116" xlink:href="#r0"/><use x="53" y="116" xlink:href="#r0"/><use x="62" y="116" xlink:href="#r0"/><use x="71" y="116" xlink:href="#r0"/><use x="80" y="116" xlink:href="#r0"/><use x="98" y="116" xlink:href="#r0"/><use x="107" y="116" xlink:href="#r0"/><use x="116" y="116" xlink:href="#r0"/><use x="125" y="116" xlink:href="#r0"/><use x="134" y="116" xlink:href="#r0"/><use x="152" y="116" xlink:href="#r0"/><use x="161" y="116" xlink:href="#r0"/><use x="170" y="116" xlink:href="#r0"/><use x="197" y="116" xlink:href="#r0"/><use x="224" y="116" xlink:href="#r0"/><use x="233" y="116" xlink:href="#r0"/><use x="251" y="116" xlink:href="#r0"/><use x="269" y="116" xlink:href="#r0"/><use x="287" y="116" xlink:href="#r0"/><use x="89" y="125" xlink:href="#r0"/><use x="125" y="125" xlink:href="#r0"/><use x="206" y="125" xlink:href="#r0"/><use x="215" y="125" xlink:href="#r0"/><use x="233" y="125" xlink:href="#r0"/><use x="242" y="125" xlink:href="#r0"/><use x="251" y="125" xlink:href="#r0"/><use x="260" y="125" xlink:href="#r0"/><use x="296" y="125" xlink:href="#r0"/><use x="80" y="134" xlink:href="#r0"/><use x="98" y="134" xlink:href="#r0"/><use x="107" y="134" xlink:href="#r0"/><use x="116" y="134" xlink:href="#r0"/><use x="125" y="134" xlink:href="#r0"/><use x="143" y="134" xlink:href="#r0"/><use x="152" y="134" xlink:href="#r0"/><use x="170" y="134" xlink:href="#r0"/><use x="179" y="134" xlink:href="#r0"/><use x="197" y="134" xlink:href="#r0"/><use x="206" y="134" xlink:href="#r0"/><use x="233" y="134" xlink:href="#r0"/><use x="242" y="134" xlink:href="#r0"/><use x="260" y="134" xlink:href="#r0"/><use x="44" y="143" xlink:href="#r0"/><use x="53" y="143" xlink:href="#r0"/><use x="80" y="143" xlink:href="#r0"/><use x="89" y="143" xlink:href="#r0"/><use x="125" y="143" xlink:href="#r0"/><use x="134" y="143" xlink:href="#r0"/><use x="143" y="143" xlink:href="#r0"/><use x="170" y="143" xlink:href="#r0"/><use x="233" y="143" xlink:href="#r0"/><use x="251" y="143" xlink:href="#r0"/><use x="287" y="143" xlink:href="#r0"/><use x="44" y="152" xlink:href="#r0"/><use x="53" y="152" xlink:href="#r0"/><use x="62" y="152" xlink:href="#r0"/><use x="71" y="152" xlink:href="#r0"/><use x="89" y="152" xlink:href="#r0"/><use x="98" y="152" xlink:href="#r0"/><use x="125" y="152" xlink:href="#r0"/><use x="143" y="152" xlink:href="#r0"/><use x="161" y="152" xlink:href="#r0"/><use x="170" y="152" xlink:href="#r0"/><use x="179" y="152" xlink:href="#r0"/><use x="188" y="152" xlink:href="#r0"/><use x="197" y="152" xlink:href="#r0"/><use x="224" y="152" xlink:href="#r0"/><use x="269" y="152" xlink:href="#r0"/><use x="278" y="152" xlink:href="#r0"/><use x="44" y="161" xlink:href="#r0"/><use x="71" y="161" xlink:href="#r0"/><use x="80" y="161" xlink:href="#r0"/><use x="107" y="161" xlink:href="#r0"/><use x="134" y="161" xlink:href="#r0"/><use x="152" y="161" xlink:href="#r0"/><use x="170" y="161" xlink:href="#r0"/><use x="188" y="161" xlink:href="#r0"/><use x="197" y="161" xlink:href="#r0"/><use x="206" y="161" xlink:href="#r0"/><use x="215" y="161" xlink:href="#r0"/><use x="233" y="161" xlink:href="#r0"/><use x="242" y="161" xlink:href="#r0"/><use x="251" y="161" xlink:href="#r0"/><use x="260" y="161" xlink:href="#r0"/><use x="278" y="161" xlink:href="#r0"/><use x="296" y="161" xlink:href="#r0"/><use x="62" y="170" xlink:href="#r0"/><use x="80" y="170" xlink:href="#r0"/><use x="98" y="170" xlink:href="#r0"/><use x="107" y="170" xlink:href="#r0"/><use x="116" y="170" xlink:href="#r0"/><use x="134" y="170" xlink:href="#r0"/><use x="161" y="170" xlink:href="#r0"/><use x="179" y="170" xlink:href="#r0"/><use x="188" y="170" xlink:href="#r0"/><use x="197" y="170" xlink:href="#r0"/><use x="242" y="170" xlink:href="#r0"/><use x="251" y="170" xlink:href="#r0"/><use x="260" y="170" xlink:href="#r0"/><use x="278" y="170" xlink:href="#r0"/><use x="62" y="179" xlink:href="#r0"/><use x="71" y="179" xlink:href="#r0"/><use x="116" y="179" xlink:href="#r0"/><use x="125" y="179" xlink:href="#r0"/><use x="152" y="179" xlink:href="#r0"/><use x="179" y="179" xlink:href="#r0"/><use x="188" y="179" xlink:href="#r0"/><use x="215" y="179" xlink:href="#r0"/><use x="242" y="179" xlink:href="#r0"/><use x="260" y="179" xlink:href="#r0"/><use x="287" y="179" xlink:href="#r0"/><use x="53" y="188" xlink:href="#r0"/><use x="80" y="188" xlink:href="#r0"/><use x="98" y="188" xlink:href="#r0"/><use x="134" y="188" xlink:href="#r0"/><use x="152" y="188" xlink:href="#r0"/><use x="161" y="188" xlink:href="#r0"/><use x="179" y="188" xlink:href="#r0"/><use x="197" y="188" xlink:href="#r0"/><use x="224" y="188" xlink:href="#r0"/><use x="278" y="188" xlink:href="#r0"/><use x="44" y="197" xlink:href="#r0"/><use x="80" y="197" xlink:href="#r0"/><use x="89" y="197" xlink:href="#r0"/><use x="107" y="197" xlink:href="#r0"/><use x="125" y="197" xlink:href="#r0"/><use x="161" y="197" xlink:href="#r0"/><use x="188" y="197" xlink:href="#r0"/><use x="206" y="197" xlink:href="#r0"/><use x="215" y="197" xlink:href="#r0"/><use x="242" y="197" xlink:href="#r0"/><use x="251" y="197" xlink:href="#r0"/><use x="260" y="197" xlink:href="#r0"/><use x="269" y="197" xlink:href="#r0"/><use x="278" y="197" xlink:href="#r0"/><use x="296" y="197" xlink:href="#r0"/><use x="44" y="206" xlink:href="#r0"/><use x="71" y="206" xlink:href="#r0"/><use x="89" y="206" xlink:href="#r0"/><use x="98" y="206" xlink:href="#r0"/><use x="125" y="206" xlink:href="#r0"/><use x="134" y="206" xlink:href="#r0"/><use x="143" y="206" xlink:href="#r0"/><use x="152" y="206" xlink:href="#r0"/><use x="161" y="206" xlink:href="#r0"/><use x="170" y="206" xlink:href="#r0"/><use x="179" y="206" xlink:href="#r0"/><use x="188" y="206" xlink:href="#r0"/><use x="233" y="206" xlink:href="#r0"/><use x="251" y="206" xlink:href="#r0"/><use x="269" y="206" xlink:href="#r0"/><use x="278" y="206" xlink:href="#r0"/><use x="44" y="215" xlink:href="#r0"/><use x="71" y="215" xlink:href="#r0"/><use x="107" y="215" xlink:href="#r0"/><use x="116" y="215" xlink:href="#r0"/><use x="125" y="215" xlink:href="#r0"/><use x="143" y="215" xlink:href="#r0"/><use x="170" y="215" xlink:href="#r0"/><use x="179" y="215" xlink:href="#r0"/><use x="206" y="215" xlink:href="#r0"/><use x="224" y="215" xlink:href="#r0"/><use x="242" y="215" xlink:href="#r0"/><use x="260" y="215" xlink:href="#r0"/><use x="287" y="215" xlink:href="#r0"/><use x="44" y="224" xlink:href="#r0"/><use x="71" y="224" xlink:href="#r0"/><use x="80" y="224" xlink:href="#r0"/><use x="98" y="224" xlink:href="#r0"/><use x="116" y="224" xlink:href="#r0"/><use x="134" y="224" xlink:href="#r0"/><use x="143" y="224" xlink:href="#r0"/><use x="161" y="224" xlink:href="#r0"/><use x="188" y="224" xlink:href="#r0"/><use x="197" y="224" xlink:href="#r0"/><use x="224" y="224" xlink:href="#r0"/><use x="233" y="224" xlink:href="#r0"/><use x="242" y="224" xlink:href="#r0"/><use x="251" y="224" xlink:href="#r0"/><use x="260" y="224" xlink:href="#r0"/><use x="278" y="224" xlink:href="#r0"/><use x="287" y="224" xlink:href="#r0"/><use x="296" y="224" xlink:href="#r0"/><use x="116" y="233" xlink:href="#r0"/><use x="152" y="233" xlink:href="#r0"/><use x="170" y="233" xlink:href="#r0"/><use x="188" y="233" xlink:href="#r0"/><use x="206" y="233" xlink:href="#r0"/><use x="215" y="233" xlink:href="#r0"/><use x="224" y="233" xlink:href="#r0"/><use x="260" y="233" xlink:href="#r0"/><use x="269" y="233" xlink:href="#r0"/><use x="278" y="233" xlink:href="#r0"/><use x="287" y="233" xlink:href="#r0"/><use x="296" y="233" xlink:href="#r0"/><use x="44" y="242" xlink:href="#r0"/><use x="53" y="242" xlink:href="#r0"/><use x="62" y="242" xlink:href="#r0"/><use x="71" y="242" xlink:href="#r0"/><use x="80" y="242" xlink:href="#r0"/><use x="89" y="242" xlink:href="#r0"/><use x="98" y="242" xlink:href="#r0"/><use x="116" y="242" xlink:href="#r0"/><use x="125" y="242" xlink:href="#r0"/><use x="170" y="242" xlink:href="#r0"/><use x="179" y="242" xlink:href="#r0"/><use x="188" y="242" xlink:href="#r0"/><use x="215" y="242" xlink:href="#r0"/><use x="224" y="242" xlink:href="#r0"/><use x="242" y="242" xlink:href="#r0"/><use x="260" y="242" xlink:href="#r0"/><use x="269" y="242" xlink:href="#r0"/><use x="278" y="242" xlink:href="#r0"/><use x="44" y="251" xlink:href="#r0"/><use x="98" y="251" xlink:href="#r0"/><use x="134" y="251" xlink:href="#r0"/><use x="152" y="251" xlink:href="#r0"/><use x="170" y="251" xlink:href="#r0"/><use x="179" y="251" xlink:href="#r0"/><use x="188" y="251" xlink:href="#r0"/><use x="224" y="251" xlink:href="#r0"/><use x="260" y="251" xlink:href="#r0"/><use x="269" y="251" xlink:href="#r0"/><use x="296" y="251" xlink:href="#r0"/><use x="44" y="260" xlink:href="#r0"/><use x="62" y="260" xlink:href="#r0"/><use x="71" y="260" xlink:href="#r0"/><use x="80" y="260" xlink:href="#r0"/><use x="98" y="260" xlink:href="#r0"/><use x="116" y="260" xlink:href="#r0"/><use x="134" y="260" xlink:href="#r0"/><use x="152" y="260" xlink:href="#r0"/><use x="161" y="260" xlink:href="#r0"/><use x="179" y="260" xlink:href="#r0"/><use x="188" y="260" xlink:href="#r0"/><use x="197" y="260" xlink:href="#r0"/><use x="206" y="260" xlink:href="#r0"/><use x="224" y="260" xlink:href="#r0"/><use x="233" y="260" xlink:href="#r0"/><use x="242" y="260" xlink:href="#r0"/><use x="251" y="260" xlink:href="#r0"/><use x="260" y="260" xlink:href="#r0"/><use x="278" y="260" xlink:href="#r0"/><use x="287" y="260" xlink:href="#r0"/><use x="296" y="260" xlink:href="#r0"/><use x="44" y="269" xlink:href="#r0"/><use x="62" y="269" xlink:href="#r0"/><use x="71" y="269" xlink:href="#r0"/><use x="80" y="269" xlink:href="#r0"/><use x="98" y="269" xlink:href="#r0"/><use x="116" y="269" xlink:href="#r0"/><use x="134" y="269" xlink:href="#r0"/><use x="170" y="269" xlink:href="#r0"/><use x="188" y="269" xlink:href="#r0"/><use x="197" y="269" xlink:href="#r0"/><use x="206" y="269" xlink:href="#r0"/><use x="224" y="269" xlink:href="#r0"/><use x="269" y="269" xlink:href="#r0"/><use x="278" y="269" xlink:href="#r0"/><use x="287" y="269" xlink:href="#r0"/><use x="296" y="269" xlink:href="#r0"/><use x="44" y="278" xlink:href="#r0"/><use x="62" y="278" xlink:href="#r0"/><use x="71" y="278" xlink:href="#r0"/><use x="80" y="278" xlink:href="#r0"/><use x="98" y="278" xlink:href="#r0"/><use x="116" y="278" xlink:href="#r0"/><use x="134" y="278" xlink:href="#r0"/><use x="143" y="278" xlink:href="#r0"/><use x="152" y="278" xlink:href="#r0"/><use x="161" y="278" xlink:href="#r0"/><use x="179" y="278" xlink:href="#r0"/><use x="197" y="278" xlink:href="#r0"/><use x="224" y="278" xlink:href="#r0"/><use x="242" y="278" xlink:href="#r0"/><use x="251" y="278" xlink:href="#r0"/><use x="260" y="278" xlink:href="#r0"/><use x="287" y="278" xlink:href="#r0"/><use x="44" y="287" xlink:href="#r0"/><use x="98" y="287" xlink:href="#r0"/><use x="116" y="287" xlink:href="#r0"/><use x="134" y="287" xlink:href="#r0"/><use x="143" y="287" xlink:href="#r0"/><use x="170" y="287" xlink:href="#r0"/><use x="215" y="287" xlink:href="#r0"/><use x="224" y="287" xlink:href="#r0"/><use x="251" y="287" xlink:href="#r0"/><use x="269" y="287" xlink:href="#r0"/><use x="287" y="287" xlink:href="#r0"/><use x="44" y="296" xlink:href="#r0"/><use x="53" y="296" xlink:href="#r0"/><use x="62" y="296" xlink:href="#r0"/><use x="71" y="296" xlink:href="#r0"/><use x="80" y="296" xlink:href="#r0"/><use x="89" y="296" xlink:href="#r0"/><use x="98" y="296" xlink:href="#r0"/><use x="116" y="296" xlink:href="#r0"/><use x="125" y="296" xlink:href="#r0"/><use x="143" y="296" xlink:href="#r0"/><use x="152" y="296" xlink:href="#r0"/><use x="179" y="296" xlink:href="#r0"/><use x="197" y="296" xlink:href="#r0"/><use x="233" y="296" xlink:href="#r0"/><use x="251" y="296" xlink:href="#r0"/><use x="278" y="296" xlink:href="#r0"/></svg>
