<?xml version="1.0" encoding="UTF-8"?>
<svg xmlns="http://www.w3.org/2000/svg" xmlns:xlink="http://www.w3.org/1999/xlink" version="1.1" width="350px" height="350px" viewBox="0 0 350 350"><defs><rect id="r0" width="10" height="10" fill="#000000"/></defs><rect x="0" y="0" width="350" height="350" fill="#fefefe"/><use x="50" y="50" xlink:href="#r0"/><use x="60" y="50" xlink:href="#r0"/><use x="70" y="50" xlink:href="#r0"/><use x="80" y="50" xlink:href="#r0"/><use x="90" y="50" xlink:href="#r0"/><use x="100" y="50" xlink:href="#r0"/><use x="110" y="50" xlink:href="#r0"/><use x="130" y="50" xlink:href="#r0"/><use x="140" y="50" xlink:href="#r0"/><use x="150" y="50" xlink:href="#r0"/><use x="160" y="50" xlink:href="#r0"/><use x="180" y="50" xlink:href="#r0"/><use x="210" y="50" xlink:href="#r0"/><use x="230" y="50" xlink:href="#r0"/><use x="240" y="50" xlink:href="#r0"/><use x="250" y="50" xlink:href="#r0"/><use x="260" y="50" xlink:href="#r0"/><use x="270" y="50" xlink:href="#r0"/><use x="280" y="50" xlink:href="#r0"/><use x="290" y="50" xlink:href="#r0"/><use x="50" y="60" xlink:href="#r0"/><use x="110" y="60" xlink:href="#r0"/><use x="160" y="60" xlink:href="#r0"/><use x="170" y="60" xlink:href="#r0"/><use x="180" y="60" xlink:href="#r0"/><use x="230" y="60" xlink:href="#r0"/><use x="290" y="60" xlink:href="#r0"/><use x="50" y="70" xlink:href="#r0"/><use x="70" y="70" xlink:href="#r0"/><use x="80" y="70" xlink:href="#r0"/><use x="90" y="70" xlink:href="#r0"/><use x="110" y="70" xlink:href="#r0"/><use x="140" y="70" xlink:href="#r0"/><use x="160" y="70" xlink:href="#r0"/><use x="180" y="70" xlink:href="#r0"/><use x="210" y="70" xlink:href="#r0"/><use x="230" y="70" xlink:href="#r0"/><use x="250" y="70" xlink:href="#r0"/><use x="260" y="70" xlink:href="#r0"/><use x="270" y="70" xlink:href="#r0"/><use x="290" y="70" xlink:href="#r0"/><use x="50" y="80" xlink:href="#r0"/><use x="70" y="80" xlink:href="#r0"/><use x="80" y="80" xlink:href="#r0"/><use x="90" y="80" xlink:href="#r0"/><use x="110" y="80" xlink:href="#r0"/><use x="150" y="80" xlink:href="#r0"/><use x="160" y="80" xlink:href="#r0"/><use x="180" y="80" xlink:href="#r0"/><use x="190" y="80" xlink:href="#r0"/><use x="200" y="80" xlink:href="#r0"/><use x="230" y="80" xlink:href="#r0"/><use x="250" y="80" xlink:href="#r0"/><use x="260" y="80" xlink:href="#r0"/><use x="270" y="80" xlink:href="#r0"/><use x="290" y="80" xlink:href="#r0"/><use x="50" y="90" xlink:href="#r0"/><use x="70" y="90" xlink:href="#r0"/><use x="80" y="90" xlink:href="#r0"/><use x="90" y="90" xlink:href="#r0"/><use x="110" y="90" xlink:href="#r0"/><use x="150" y="90" xlink:href="#r0"/><use x="160" y="90" xlink:href="#r0"/><use x="170" y="90" xlink:href="#r0"/><use x="230" y="90" xlink:href="#r0"/><use x="250" y="90" xlink:href="#r0"/><use x="260" y="90" xlink:href="#r0"/><use x="270" y="90" xlink:href="#r0"/><use x="290" y="90" xlink:href="#r0"/><use x="50" y="100" xlink:href="#r0"/><use x="110" y="100" xlink:href="#r0"/><use x="140" y="100" xlink:href="#r0"/><use x="160" y="100" xlink:href="#r0"/><use x="180" y="100" xlink:href="#r0"/><use x="210" y="100" xlink:href="#r0"/><use x="230" y="100" xlink:href="#r0"/><use x="290" y="100" xlink:href="#r0"/><use x="50" y="110" xlink:href="#r0"/><use x="60" y="110" xlink:href="#r0"/><use x="70" y="110" xlink:href="#r0"/><use x="80" y="110" xlink:href="#r0"/><use x="90" y="110" xlink:href="#r0"/><use x="100" y="110" xlink:href="#r0"/><use x="110" y="110" xlink:href="#r0"/><use x="130" y="110" xlink:href="#r0"/><use x="150" y="110" xlink:href="#r0"/><use x="170" y="110" xlink:href="#r0"/><use x="190" y="110" xlink:href="#r0"/><use x="210" y="110" xlink:href="#r0"/><use x="230" y="110" xlink:href="#r0"/><use x="240" y="110" xlink:href="#r0"/><use x="250" y="110" xlink:href="#r0"/><use x="260" y="110" xlink:href="#r0"/><use x="270" y="110" xlink:href="#r0"/><use x="280" y="110" xlink:href="#r0"/><use x="290" y="110" xlink:href="#r0"/><use x="130" y="120" xlink:href="#r0"/><use x="140" y="120" xlink:href="#r0"/><use x="170" y="120" xlink:href="#r0"/><use x="180" y="120" xlink:href="#r0"/><use x="190" y="120" xlink:href="#r0"/><use x="210" y="120" xlink:href="#r0"/><use x="50" y="130" xlink:href="#r0"/><use x="60" y="130" xlink:href="#r0"/><use x="80" y="130" xlink:href="#r0"/><use x="90" y="130" xlink:href="#r0"/><use x="110" y="130" xlink:href="#r0"/><use x="140" y="130" xlink:href="#r0"/><use x="170" y="130" xlink:href="#r0"/><use x="200" y="130" xlink:href="#r0"/><use x="230" y="130" xlink:href="#r0"/><use x="290" y="130" xlink:href="#r0"/><use x="90" y="140" xlink:href="#r0"/><use x="150" y="140" xlink:href="#r0"/><use x="200" y="140" xlink:href="#r0"/><use x="240" y="140" xlink:href="#r0"/><use x="250" y="140" xlink:href="#r0"/><use x="260" y="140" xlink:href="#r0"/><use x="270" y="140" xlink:href="#r0"/><use x="280" y="140" xlink:href="#r0"/><use x="50" y="150" xlink:href="#r0"/><use x="70" y="150" xlink:href="#r0"/><use x="100" y="150" xlink:href="#r0"/><use x="110" y="150" xlink:href="#r0"/><use x="130" y="150" xlink:href="#r0"/><use x="140" y="150" xlink:href="#r0"/><use x="170" y="150" xlink:href="#r0"/><use x="190" y="150" xlink:href="#r0"/><use x="200" y="150" xlink:href="#r0"/><use x="210" y="150" xlink:href="#r0"/><use x="220" y="150" xlink:href="#r0"/><use x="230" y="150" xlink:href="#r0"/><use x="240" y="150" xlink:href="#r0"/><use x="260" y="150" xlink:href="#r0"/><use x="290" y="150" xlink:href="#r0"/><use x="50" y="160" xlink:href="#r0"/><use x="60" y="160" xlink:href="#r0"/><use x="70" y="160" xlink:href="#r0"/><use x="90" y="160" xlink:href="#r0"/><use x="100" y="160" xlink:href="#r0"/><use x="120" y="160" xlink:href="#r0"/><use x="200" y="160" xlink:href="#r0"/><use x="210" y="160" xlink:href="#r0"/><use x="240" y="160" xlink:href="#r0"/><use x="250" y="160" xlink:href="#r0"/><use x="260" y="160" xlink:href="#r0"/><use x="270" y="160" xlink:href="#r0"/><use x="280" y="160" xlink:href="#r0"/><use x="290" y="160" xlink:href="#r0"/><use x="60" y="170" xlink:href="#r0"/><use x="70" y="170" xlink:href="#r0"/><use x="90" y="170" xlink:href="#r0"/><use x="100" y="170" xlink:href="#r0"/><use x="110" y="170" xlink:href="#r0"/><use x="120" y="170" xlink:href="#r0"/><use x="130" y="170" xlink:href="#r0"/><use x="140" y="170" xlink:href="#r0"/><use x="150" y="170" xlink:href="#r0"/><use x="190" y="170" xlink:href="#r0"/><use x="200" y="170" xlink:href="#r0"/><use x="230" y="170" xlink:href="#r0"/><use x="240" y="170" xlink:href="#r0"/><use x="290" y="170" xlink:href="#r0"/><use x="50" y="180" xlink:href="#r0"/><use x="130" y="180" xlink:href="#r0"/><use x="150" y="180" xlink:href="#r0"/><use x="170" y="180" xlink:href="#r0"/><use x="180" y="180" xlink:href="#r0"/><use x="200" y="180" xlink:href="#r0"/><use x="210" y="180" xlink:href="#r0"/><use x="250" y="180" xlink:href="#r0"/><use x="280" y="180" xlink:href="#r0"/><use x="50" y="190" xlink:href="#r0"/><use x="60" y="190" xlink:href="#r0"/><use x="70" y="190" xlink:href="#r0"/><use x="100" y="190" xlink:href="#r0"/><use x="110" y="190" xlink:href="#r0"/><use x="130" y="190" xlink:href="#r0"/><use x="140" y="190" xlink:href="#r0"/><use x="150" y="190" xlink:href="#r0"/><use x="180" y="190" xlink:href="#r0"/><use x="200" y="190" xlink:href="#r0"/><use x="230" y="190" xlink:href="#r0"/><use x="240" y="190" xlink:href="#r0"/><use x="260" y="190" xlink:href="#r0"/><use x="270" y="190" xlink:href="#r0"/><use x="280" y="190" xlink:href="#r0"/><use x="290" y="190" xlink:href="#r0"/><use x="50" y="200" xlink:href="#r0"/><use x="90" y="200" xlink:href="#r0"/><use x="100" y="200" xlink:href="#r0"/><use x="120" y="200" xlink:href="#r0"/><use x="170" y="200" xlink:href="#r0"/><use x="190" y="200" xlink:href="#r0"/><use x="200" y="200" xlink:href="#r0"/><use x="220" y="200" xlink:href="#r0"/><use x="230" y="200" xlink:href="#r0"/><use x="240" y="200" xlink:href="#r0"/><use x="270" y="200" xlink:href="#r0"/><use x="290" y="200" xlink:href="#r0"/><use x="50" y="210" xlink:href="#r0"/><use x="80" y="210" xlink:href="#r0"/><use x="90" y="210" xlink:href="#r0"/><use x="110" y="210" xlink:href="#r0"/><use x="120" y="210" xlink:href="#r0"/><use x="150" y="210" xlink:href="#r0"/><use x="160" y="210" xlink:href="#r0"/><use x="170" y="210" xlink:href="#r0"/><use x="180" y="210" xlink:href="#r0"/><use x="190" y="210" xlink:href="#r0"/><use x="210" y="210" xlink:href="#r0"/><use x="220" y="210" xlink:href="#r0"/><use x="230" y="210" xlink:href="#r0"/><use x="240" y="210" xlink:href="#r0"/><use x="250" y="210" xlink:href="#r0"/><use x="270" y="210" xlink:href="#r0"/><use x="280" y="210" xlink:href="#r0"/><use x="130" y="220" xlink:href="#r0"/><use x="150" y="220" xlink:href="#r0"/><use x="160" y="220" xlink:href="#r0"/><use x="180" y="220" xlink:href="#r0"/><use x="210" y="220" xlink:href="#r0"/><use x="250" y="220" xlink:href="#r0"/><use x="280" y="220" xlink:href="#r0"/><use x="50" y="230" xlink:href="#r0"/><use x="60" y="230" xlink:href="#r0"/><use x="70" y="230" xlink:href="#r0"/><use x="80" y="230" xlink:href="#r0"/><use x="90" y="230" xlink:href="#r0"/><use x="100" y="230" xlink:href="#r0"/><use x="110" y="230" xlink:href="#r0"/><use x="150" y="230" xlink:href="#r0"/><use x="170" y="230" xlink:href="#r0"/><use x="210" y="230" xlink:href="#r0"/><use x="230" y="230" xlink:href="#r0"/><use x="250" y="230" xlink:href="#r0"/><use x="260" y="230" xlink:href="#r0"/><use x="290" y="230" xlink:href="#r0"/><use x="50" y="240" xlink:href="#r0"/><use x="110" y="240" xlink:href="#r0"/><use x="150" y="240" xlink:href="#r0"/><use x="160" y="240" xlink:href="#r0"/><use x="180" y="240" xlink:href="#r0"/><use x="200" y="240" xlink:href="#r0"/><use x="210" y="240" xlink:href="#r0"/><use x="250" y="240" xlink:href="#r0"/><use x="290" y="240" xlink:href="#r0"/><use x="50" y="250" xlink:href="#r0"/><use x="70" y="250" xlink:href="#r0"/><use x="80" y="250" xlink:href="#r0"/><use x="90" y="250" xlink:href="#r0"/><use x="110" y="250" xlink:href="#r0"/><use x="130" y="250" xlink:href="#r0"/><use x="140" y="250" xlink:href="#r0"/><use x="160" y="250" xlink:href="#r0"/><use x="170" y="250" xlink:href="#r0"/><use x="200" y="250" xlink:href="#r0"/><use x="210" y="250" xlink:href="#r0"/><use x="220" y="250" xlink:href="#r0"/><use x="230" y="250" xlink:href="#r0"/><use x="240" y="250" xlink:href="#r0"/><use x="250" y="250" xlink:href="#r0"/><use x="260" y="250" xlink:href="#r0"/><use x="50" y="260" xlink:href="#r0"/><use x="70" y="260" xlink:href="#r0"/><use x="80" y="260" xlink:href="#r0"/><use x="90" y="260" xlink:href="#r0"/><use x="110" y="260" xlink:href="#r0"/><use x="130" y="260" xlink:href="#r0"/><use x="140" y="260" xlink:href="#r0"/><use x="170" y="260" xlink:href="#r0"/><use x="180" y="260" xlink:href="#r0"/><use x="190" y="260" xlink:href="#r0"/><use x="210" y="260" xlink:href="#r0"/><use x="220" y="260" xlink:href="#r0"/><use x="230" y="260" xlink:href="#r0"/><use x="260" y="260" xlink:href="#r0"/><use x="280" y="260" xlink:href="#r0"/><use x="290" y="260" xlink:href="#r0"/><use x="50" y="270" xlink:href="#r0"/><use x="70" y="270" xlink:href="#r0"/><use x="80" y="270" xlink:href="#r0"/><use x="90" y="270" xlink:href="#r0"/><use x="110" y="270" xlink:href="#r0"/><use x="140" y="270" xlink:href="#r0"/><use x="160" y="270" xlink:href="#r0"/><use x="170" y="270" xlink:href="#r0"/><use x="180" y="270" xlink:href="#r0"/><use x="200" y="270" xlink:href="#r0"/><use x="210" y="270" xlink:href="#r0"/><use x="220" y="270" xlink:href="#r0"/><use x="240" y="270" xlink:href="#r0"/><use x="250" y="270" xlink:href="#r0"/><use x="270" y="270" xlink:href="#r0"/><use x="280" y="270" xlink:href="#r0"/><use x="290" y="270" xlink:href="#r0"/><use x="50" y="280" xlink:href="#r0"/><use x="110" y="280" xlink:href="#r0"/><use x="130" y="280" xlink:href="#r0"/><use x="240" y="280" xlink:href="#r0"/><use x="250" y="280" xlink:href="#r0"/><use x="270" y="280" xlink:href="#r0"/><use x="280" y="280" xlink:href="#r0"/><use x="290" y="280" xlink:href="#r0"/><use x="50" y="290" xlink:href="#r0"/><use x="60" y="290" xlink:href="#r0"/><use x="70" y="290" xlink:href="#r0"/><use x="80" y="290" xlink:href="#r0"/><use x="90" y="290" xlink:href="#r0"/><use x="100" y="290" xlink:href="#r0"/><use x="110" y="290" xlink:href="#r0"/><use x="130" y="290" xlink:href="#r0"/><use x="140" y="290" xlink:href="#r0"/><use x="170" y="290" xlink:href="#r0"/><use x="190" y="290" xlink:href="#r0"/><use x="210" y="290" xlink:href="#r0"/><use x="220" y="290" xlink:href="#r0"/><use x="230" y="290" xlink:href="#r0"/><use x="260" y="290" xlink:href="#r0"/><use x="290" y="290" xlink:href="#r0"/></svg>
